<svg width="40" height="39" viewBox="0 0 40 39" fill="none" xmlns="http://www.w3.org/2000/svg">
<rect width="40" height="39" fill="#007ACC"/>
<path d="M31.7476 16.1617C32.6351 16.3787 33.4415 16.8671 34.0651 17.5653C34.4086 17.9432 34.7069 18.3638 34.9533 18.8177C34.9647 18.867 33.3541 20.0044 32.3773 20.6388C32.3418 20.664 32.2011 20.5029 32.0416 20.2553C31.8632 19.9329 31.6099 19.6633 31.3054 19.4717C31.001 19.2801 30.6553 19.1727 30.3007 19.1596C29.1779 19.0785 28.4544 19.6965 28.4597 20.7297C28.45 20.9836 28.505 21.2356 28.6192 21.4595C28.8662 21.9964 29.3249 22.3185 30.7656 22.9749C33.4177 24.1747 34.5561 24.9658 35.2587 26.09C35.6559 26.8003 35.9005 27.5933 35.9754 28.4134C36.0503 29.2336 35.9537 30.061 35.6924 30.8377C35.3332 31.6896 34.7637 32.4249 34.0429 32.9673C33.3221 33.5096 32.4763 33.8394 31.5933 33.9222C30.6548 34.0354 29.7065 34.025 28.7703 33.8915C27.3364 33.6439 26.0154 32.9205 25.0007 31.8272C24.6173 31.3734 24.2927 30.8683 24.0354 30.325C24.1436 30.2404 24.2575 30.1642 24.3763 30.097C24.541 29.9984 25.1644 29.6215 25.7523 29.2632L26.8198 28.6058L27.0429 28.9476C27.4187 29.5124 27.897 29.9935 28.4503 30.3633C29.0091 30.6855 29.642 30.8381 30.2786 30.8043C30.9151 30.7704 31.5302 30.5514 32.0552 30.1715C32.326 29.8941 32.4953 29.5254 32.5334 29.1299C32.5715 28.7344 32.476 28.3375 32.2637 28.0086C31.9759 27.5758 31.388 27.212 29.7169 26.4505C28.4065 25.9861 27.213 25.2163 26.2256 24.1988C25.7554 23.6356 25.4081 22.971 25.2082 22.2517C25.0603 21.4323 25.0385 20.5933 25.1435 19.7666C25.3397 18.8154 25.8094 17.9505 26.4889 17.2892C27.1684 16.6279 28.0249 16.2022 28.9423 16.0697C29.8765 15.9523 30.8222 15.9834 31.7476 16.1617ZM23.0502 17.7867L23.0617 19.3798H18.235V33.7863H14.8313V19.3831H10.0046V17.8184C9.99178 17.2826 10.0057 16.7464 10.0463 16.2121C10.064 16.1869 12.9986 16.1748 16.5566 16.1814L23.0315 16.2001L23.0502 17.7867Z" fill="white"/>
</svg>
