<svg width="48" height="48" viewBox="0 0 48 48" fill="none" xmlns="http://www.w3.org/2000/svg">
<path d="M35.5177 27.5814C35.4242 27.5365 31.9249 25.8133 31.3031 25.5895C31.0492 25.4984 30.7773 25.4094 30.488 25.4094C30.0155 25.4094 29.6185 25.6449 29.3094 26.1074C28.9598 26.627 27.9016 27.8639 27.5747 28.2334C27.532 28.2822 27.4737 28.3405 27.4388 28.3405C27.4074 28.3405 26.8659 28.1175 26.7019 28.0463C22.9481 26.4157 20.0988 22.4945 19.7081 21.8332C19.6523 21.7382 19.65 21.695 19.6495 21.695C19.6632 21.6447 19.7895 21.5181 19.8546 21.4528C20.0452 21.2642 20.2517 21.0157 20.4515 20.7752C20.5461 20.6613 20.6408 20.5472 20.7339 20.4397C21.0237 20.1024 21.1528 19.8406 21.3024 19.5373L21.3808 19.3798C21.7461 18.654 21.4341 18.0415 21.3332 17.8438C21.2505 17.6783 19.7729 14.1122 19.6158 13.7376C19.2381 12.8335 18.7389 12.4126 18.0453 12.4126C17.9809 12.4126 18.0453 12.4126 17.7753 12.424C17.4467 12.4378 15.6568 12.6735 14.8654 13.1723C14.0262 13.7014 12.6064 15.388 12.6064 18.354C12.6064 21.0235 14.3005 23.5439 15.0278 24.5025C15.0459 24.5267 15.0791 24.5758 15.1272 24.6462C17.9126 28.7141 21.385 31.7287 24.905 33.1349C28.2939 34.4885 29.8986 34.645 30.8109 34.645H30.8111C31.1944 34.645 31.5013 34.6149 31.772 34.5883L31.9437 34.5719C33.1144 34.4681 35.6871 33.135 36.2723 31.5088C36.7333 30.2279 36.8549 28.8284 36.5482 28.3205C36.3381 27.9752 35.9761 27.8014 35.5177 27.5814Z" fill="#00FF75"/>
<path d="M24.426 0C11.4261 0 0.849938 10.4967 0.849938 23.3989C0.849938 27.5719 1.96672 31.6568 4.0823 35.2318L0.0330028 47.1765C-0.0424258 47.3992 0.0136781 47.6455 0.178405 47.8131C0.297314 47.9345 0.458613 48 0.62334 48C0.686457 48 0.750042 47.9905 0.812068 47.9707L13.2671 44.0129C16.6754 45.8339 20.5276 46.7952 24.4262 46.7952C37.4248 46.7953 48 36.2997 48 23.3989C48 10.4967 37.4248 0 24.426 0ZM24.426 41.9211C20.7576 41.9211 17.2045 40.8619 14.1503 38.8577C14.0476 38.7902 13.9284 38.7556 13.8084 38.7556C13.7449 38.7556 13.6814 38.7653 13.6195 38.7849L7.38027 40.7682L9.3944 34.826C9.45955 34.6337 9.42698 34.4216 9.30698 34.2577C6.98116 31.0797 5.7517 27.3249 5.7517 23.3989C5.7517 13.1844 14.129 4.87418 24.4259 4.87418C34.7216 4.87418 43.0979 13.1844 43.0979 23.3989C43.098 33.6122 34.7219 41.9211 24.426 41.9211Z" fill="#00FF75"/>
</svg>
